<svg width="24" height="21" viewBox="0 0 24 21" fill="none" xmlns="http://www.w3.org/2000/svg">
<path d="M23.18 5.62262L3.92545 5.62262M23.18 5.62262L18.3664 1M23.18 5.62262L18.3664 10.2452" stroke="white" stroke-linecap="round" stroke-linejoin="round"/>
<path d="M5.97006 4.95477V10.7306C5.97006 10.8347 5.97006 12.017 5.97006 12.1247C5.97006 12.5797 5.82649 13.3334 5.04529 12.7935L3.40952 10.9251C2.91178 10.3563 2.02923 10.2842 1.4391 10.7621C0.847925 11.2415 0.772457 12.0901 1.26915 12.6589L4.56286 16.4221C5.21579 17.1992 5.68187 17.6451 6.31051 18.3002C7.43693 19.4754 8.47098 20.4149 10.2482 20.4149C12.8177 20.4149 14.9005 18.4109 14.9005 15.9387V10.2903C14.9005 9.63771 14.351 9.10902 13.6733 9.10902C13.307 9.10902 12.9824 9.26594 12.757 9.51072V9.32636C12.757 8.67426 12.208 8.1456 11.5298 8.1456C11.1492 8.1456 10.814 8.31523 10.5887 8.57678C10.4736 8.03948 9.97954 7.63472 9.38677 7.63472C8.9946 7.63472 8.64939 7.81501 8.42504 8.09028V4.95477C8.42504 4.30267 7.87555 3.77349 7.19782 3.77349C6.5201 3.77349 5.97006 4.30267 5.97006 4.95477Z" fill="black"/>
</svg>
