<svg width="35" height="27" viewBox="0 0 35 27" fill="none" xmlns="http://www.w3.org/2000/svg">
<path d="M28.9895 3.375H26.2849L24.5797 1.6875C23.5923 0.710438 21.8598 0 20.4632 0H13.6421C12.2455 0 10.5129 0.710438 9.5256 1.6875L7.82034 3.375H5.11579C2.29528 3.375 0 5.64637 0 8.4375V21.9375C0 24.7286 2.29528 27 5.11579 27H28.9895C31.81 27 34.1053 24.7286 34.1053 21.9375V8.4375C34.1053 5.64637 31.81 3.375 28.9895 3.375ZM17.0526 20.25C15.4695 20.2498 13.9513 19.6272 12.832 18.5193C11.7127 17.4113 11.084 15.9087 11.0842 14.3421C11.0844 12.7754 11.7136 11.273 12.8332 10.1654C13.9528 9.05773 15.4712 8.43559 17.0543 8.43581C18.6375 8.43604 20.1557 9.0586 21.275 10.1666C22.3943 11.2745 23.023 12.7771 23.0228 14.3438C23.0225 15.9104 22.3934 17.4128 21.2738 18.5204C20.1542 19.6281 18.6358 20.2502 17.0526 20.25ZM27.2842 12.3171C26.9931 12.3171 26.7048 12.2603 26.4359 12.1501C26.1669 12.0398 25.9225 11.8782 25.7167 11.6745C25.5108 11.4708 25.3475 11.229 25.2361 10.9628C25.1247 10.6967 25.0674 10.4114 25.0674 10.1233C25.0674 9.83522 25.1247 9.54996 25.2361 9.2838C25.3475 9.01764 25.5108 8.77581 25.7167 8.5721C25.9225 8.36839 26.1669 8.2068 26.4359 8.09655C26.7048 7.98631 26.9931 7.92956 27.2842 7.92956C27.8722 7.92956 28.436 8.16069 28.8518 8.5721C29.2675 8.98351 29.5011 9.54149 29.5011 10.1233C29.5011 10.7051 29.2675 11.2631 28.8518 11.6745C28.436 12.0859 27.8722 12.3171 27.2842 12.3171Z" fill="url(#paint0_linear_26_359)"/>
<defs>
<linearGradient id="paint0_linear_26_359" x1="17.0526" y1="0" x2="17.0526" y2="27" gradientUnits="userSpaceOnUse">
<stop stop-color="#00897B"/>
<stop offset="1" stop-color="#7BF9EC"/>
</linearGradient>
</defs>
</svg>
