<svg width="40" height="40" viewBox="0 0 40 40" fill="none" xmlns="http://www.w3.org/2000/svg">
<g clip-path="url(#clip0_26_280)">
<path d="M13.7353 1.29683C9.79576 2.66349 6.39832 5.25745 4.042 8.69771C1.68567 12.138 0.494658 16.2432 0.643904 20.4103C0.79315 24.5775 2.27479 28.587 4.87118 31.8499C7.46758 35.1127 11.0419 37.457 15.0691 38.5383C18.334 39.3808 21.7547 39.4178 25.0371 38.6462C28.0106 37.9782 30.7597 36.5496 33.0152 34.5C35.3627 32.3017 37.0666 29.5051 37.9438 26.411C38.8973 23.0462 39.0669 19.5077 38.4398 16.0671H20.1055V23.6725H30.7235C30.5112 24.8856 30.0565 26.0433 29.3864 27.0764C28.7164 28.1096 27.8447 28.997 26.8237 29.6854C25.5271 30.5431 24.0656 31.1201 22.5328 31.3796C20.9955 31.6654 19.4187 31.6654 17.8815 31.3796C16.3234 31.0575 14.8495 30.4144 13.5535 29.4913C11.4717 28.0177 9.90849 25.9241 9.08703 23.5093C8.25168 21.0493 8.25168 18.3824 9.08703 15.9224C9.67176 14.198 10.6384 12.628 11.9148 11.3296C13.3755 9.81632 15.2247 8.73465 17.2597 8.20323C19.2947 7.6718 21.4367 7.71116 23.4507 8.31697C25.0241 8.79994 26.4629 9.64379 27.6523 10.7813C28.8496 9.59018 30.0448 8.39603 31.2379 7.1988C31.854 6.555 32.5255 5.94201 33.1323 5.28281C31.3166 3.59317 29.1854 2.27841 26.8607 1.41389C22.6274 -0.123243 17.9954 -0.164552 13.7353 1.29683Z" fill="white"/>
<path d="M13.7353 1.29683C17.995 -0.165543 22.627 -0.125322 26.8607 1.41081C29.1858 2.28121 31.3161 3.60229 33.1292 5.29822C32.5131 5.95742 31.8632 6.57349 31.2348 7.2142C30.0396 8.40733 28.8455 9.59634 27.6523 10.7813C26.4628 9.6438 25.0241 8.79994 23.4507 8.31697C21.4373 7.70903 19.2954 7.66741 17.2599 8.19666C15.2244 8.72591 13.374 9.80559 11.9117 11.3172C10.6353 12.6157 9.66868 14.1857 9.08394 15.9101L2.69836 10.9661C4.98401 6.43352 8.94147 2.96646 13.7353 1.29683Z" fill="#E33629"/>
<path d="M1.00421 15.8638C1.34743 14.1628 1.91724 12.5156 2.69841 10.9661L9.08399 15.9224C8.24864 18.3824 8.24864 21.0493 9.08399 23.5093C6.95649 25.1521 4.82796 26.8032 2.69841 28.4625C0.742843 24.5699 0.14643 20.1348 1.00421 15.8638Z" fill="#F8BD00"/>
<path d="M20.1055 16.0641H38.4398C39.0669 19.5046 38.8973 23.0431 37.9438 26.4079C37.0667 29.502 35.3628 32.2986 33.0153 34.4969C30.9545 32.889 28.8845 31.2933 26.8238 29.6854C27.8454 28.9963 28.7175 28.1079 29.3876 27.0737C30.0577 26.0394 30.5121 24.8805 30.7235 23.6664H20.1055C20.1024 21.1343 20.1055 18.5992 20.1055 16.0641Z" fill="#587DBD"/>
<path d="M2.69531 28.4625C4.82487 26.8196 6.95339 25.1686 9.08089 23.5093C9.90399 25.9249 11.4694 28.0186 13.5536 29.4913C14.8535 30.4101 16.3306 31.0479 17.8907 31.3642C19.428 31.65 21.0048 31.65 22.5421 31.3642C24.0748 31.1047 25.5364 30.5277 26.833 29.67C28.8937 31.2779 30.9637 32.8736 33.0245 34.4815C30.7694 36.5322 28.0202 37.9619 25.0464 38.6308C21.764 39.4024 18.3433 39.3654 15.0783 38.5229C12.4961 37.8335 10.0841 36.618 7.99353 34.9528C5.78079 33.196 3.97352 30.9821 2.69531 28.4625Z" fill="#319F43"/>
</g>
<defs>
<clipPath id="clip0_26_280">
<rect width="39.4286" height="39.4286" fill="white"/>
</clipPath>
</defs>
</svg>
