<svg width="11" height="14" viewBox="0 0 11 14" fill="none" xmlns="http://www.w3.org/2000/svg">
<path d="M3.92199 6.03901L4.99499 5.05501C5.28863 4.78562 5.49511 4.43466 5.58793 4.04714C5.68076 3.65962 5.65571 3.2532 5.51599 2.88001L5.05749 1.65601C4.88658 1.19916 4.54778 0.824755 4.11023 0.609187C3.67269 0.393619 3.16937 0.353139 2.70299 0.496007C0.986994 1.02101 -0.332006 2.61601 0.0739941 4.51051C0.340994 5.75651 0.851494 7.32051 1.81999 8.98501C2.63149 10.3869 3.65244 11.6565 4.84749 12.75C6.28249 14.056 8.33249 13.7295 9.65149 12.5C10.0048 12.1702 10.2192 11.7182 10.251 11.2359C10.2828 10.7536 10.1295 10.2773 9.82249 9.90401L8.98199 8.88301C8.72868 8.57512 8.38912 8.34997 8.00691 8.23647C7.62471 8.12296 7.2173 8.12629 6.83699 8.24601L5.44899 8.68351C5.39533 8.62851 5.33433 8.56317 5.26599 8.48751C4.98054 8.17189 4.72806 7.82793 4.51249 7.46101C4.30257 7.09079 4.13102 6.70009 4.00049 6.29501C3.97257 6.21022 3.9464 6.12487 3.92199 6.03901Z" fill="#8E8E93"/>
</svg>
