<svg width="14" height="14" viewBox="0 0 14 14" fill="none" xmlns="http://www.w3.org/2000/svg">
<path d="M7 6.38402C6.17533 6.38402 5.469 6.09001 4.881 5.50202C4.293 4.91402 3.99933 4.20801 4 3.38402C4.00067 2.56002 4.29433 1.85335 4.881 1.26401C5.46767 0.674681 6.174 0.381682 7 0.385015C7.826 0.388348 8.53233 0.681681 9.119 1.26501C9.70567 1.84835 9.99933 2.55501 10 3.38501C10.0007 4.21501 9.707 4.92101 9.119 5.50301C8.531 6.08501 7.82467 6.37802 7 6.38402ZM0 13.615V11.969C0 11.5563 0.12 11.1703 0.36 10.811C0.600667 10.451 0.924 10.1717 1.33 9.97301C2.274 9.52035 3.21867 9.18102 4.164 8.95502C5.10867 8.72835 6.054 8.61502 7 8.61502C7.946 8.61502 8.89167 8.72835 9.837 8.95502C10.7823 9.18168 11.7263 9.52102 12.669 9.97301C13.0757 10.1717 13.399 10.451 13.639 10.811C13.8797 11.1703 14 11.5563 14 11.969V13.615H0Z" fill="#8E8E93"/>
</svg>
